<svg width="160" height="48" viewBox="0 0 160 48" fill="none" xmlns="http://www.w3.org/2000/svg">
  <rect width="160" height="48" rx="4" fill="#F3F4F6"/>
  <circle cx="28" cy="24" r="12" fill="#4F46E5"/>
  <path d="M58 14H78C83.5228 14 88 18.4772 88 24C88 29.5228 83.5228 34 78 34H58V14Z" fill="#818CF8"/>
  <path d="M98 14H118C123.523 14 128 18.4772 128 24C128 29.5228 123.523 34 118 34H98V14Z" fill="#C7D2FE"/>
  <path d="M64 20V28M70 20V28M76 20V28" stroke="white" stroke-width="2" stroke-linecap="round"/>
  <path d="M104 20V28M110 20V28M116 20V28" stroke="#4F46E5" stroke-width="2" stroke-linecap="round"/>
</svg> 