<svg width="160" height="48" viewBox="0 0 160 48" fill="none" xmlns="http://www.w3.org/2000/svg">
  <rect width="160" height="48" rx="4" fill="#F3F4F6"/>
  <path d="M42.52 32H36.856V16.768H42.52C44.104 16.768 45.464 17.072 46.6 17.68C47.736 18.288 48.6 19.152 49.192 20.272C49.8 21.376 50.104 22.688 50.104 24.208C50.104 25.728 49.8 27.056 49.192 28.192C48.6 29.312 47.736 30.176 46.6 30.784C45.464 31.392 44.104 31.696 42.52 31.696V32ZM39.512 29.76H42.376C43.448 29.76 44.344 29.584 45.064 29.232C45.8 28.864 46.344 28.304 46.696 27.552C47.064 26.8 47.248 25.84 47.248 24.672C47.248 23.504 47.064 22.544 46.696 21.792C46.344 21.04 45.8 20.48 45.064 20.112C44.344 19.744 43.448 19.568 42.376 19.568H39.512V29.76Z" fill="#1F2937"/>
  <path d="M57.0909 32.288C56.1389 32.288 55.2989 32.048 54.5709 31.568C53.8429 31.072 53.2749 30.4 52.8669 29.552C52.4749 28.688 52.2789 27.696 52.2789 26.576C52.2789 25.472 52.4829 24.496 52.8909 23.648C53.3149 22.784 53.8909 22.112 54.6189 21.632C55.3629 21.152 56.2189 20.912 57.1869 20.912C57.9309 20.912 58.5549 21.04 59.0589 21.296C59.5789 21.536 59.9949 21.832 60.3069 22.184C60.6349 22.536 60.8869 22.864 61.0629 23.168H61.1829V17.248H63.8629V32H61.2549V29.984H61.0629C60.8709 30.304 60.6029 30.64 60.2589 30.992C59.9309 31.344 59.5149 31.64 59.0109 31.88C58.5069 32.152 57.8669 32.288 57.0909 32.288ZM57.7629 30.056C58.3629 30.056 58.8669 29.904 59.2749 29.6C59.6829 29.28 59.9949 28.84 60.2109 28.28C60.4269 27.72 60.5349 27.072 60.5349 26.336C60.5349 25.6 60.4269 24.96 60.2109 24.416C60.0109 23.872 59.7069 23.448 59.2989 23.144C58.8909 22.84 58.3869 22.688 57.7869 22.688C57.1709 22.688 56.6589 22.848 56.2509 23.168C55.8429 23.488 55.5389 23.92 55.3389 24.464C55.1389 25.008 55.0389 25.632 55.0389 26.336C55.0389 27.056 55.1389 27.696 55.3389 28.256C55.5549 28.816 55.8589 29.264 56.2509 29.6C56.6589 29.904 57.1629 30.056 57.7629 30.056Z" fill="#1F2937"/>
  <path d="M77.6536 26.24C77.6536 26.592 77.6296 26.912 77.5816 27.2H68.8296C68.8936 28.048 69.1976 28.712 69.7416 29.192C70.2856 29.672 70.9576 29.912 71.7576 29.912C72.9336 29.912 73.7576 29.44 74.2296 28.496H77.3816C77.0696 29.488 76.4856 30.312 75.6296 30.968C74.7736 31.608 73.7016 31.928 72.4136 31.928C71.3976 31.928 70.4856 31.688 69.6776 31.208C68.8856 30.712 68.2616 30.024 67.8056 29.144C67.3656 28.264 67.1456 27.24 67.1456 26.072C67.1456 24.888 67.3656 23.856 67.8056 22.976C68.2456 22.096 68.8696 21.416 69.6776 20.936C70.4856 20.456 71.4056 20.216 72.4376 20.216C73.4216 20.216 74.3096 20.448 75.1016 20.912C75.8936 21.376 76.5096 22.04 76.9496 22.904C77.4056 23.752 77.6536 24.728 77.6536 25.832V26.24ZM75.9216 25.544C75.9056 24.776 75.6376 24.16 75.1176 23.696C74.5976 23.232 73.9576 23 73.1976 23C72.4776 23 71.8776 23.232 71.3976 23.696C70.9176 24.144 70.6216 24.76 70.5096 25.544H75.9216Z" fill="#1F2937"/>
  <path d="M89.2544 23.96C88.7344 23.272 88.0384 22.928 87.1664 22.928C86.2624 22.928 85.5344 23.248 84.9824 23.888C84.4304 24.512 84.1544 25.392 84.1544 26.528C84.1544 27.664 84.4304 28.552 84.9824 29.192C85.5344 29.816 86.2624 30.128 87.1664 30.128C88.0384 30.128 88.7344 29.784 89.2544 29.096H89.4944V32.576C89.4944 33.28 89.2944 33.816 88.8944 34.184C88.5104 34.552 87.9824 34.736 87.3104 34.736C86.7584 34.736 86.3024 34.608 85.9424 34.352C85.5824 34.112 85.3504 33.752 85.2464 33.272H82.5424C82.6944 34.344 83.1904 35.184 84.0304 35.792C84.8864 36.4 85.9984 36.704 87.3664 36.704C88.8304 36.704 89.9904 36.312 90.8464 35.528C91.7184 34.76 92.1544 33.672 92.1544 32.264V21.136H89.4944V23.96H89.2544ZM85.3104 25.376C85.5104 24.848 85.8064 24.432 86.1984 24.128C86.6064 23.808 87.0864 23.648 87.6384 23.648C88.1904 23.648 88.6624 23.808 89.0544 24.128C89.4464 24.432 89.7344 24.848 89.9184 25.376C90.1184 25.904 90.2144 26.512 90.2144 27.2C90.2144 27.888 90.1184 28.496 89.9184 29.024C89.7344 29.552 89.4464 29.976 89.0544 30.296C88.6624 30.6 88.1904 30.752 87.6384 30.752C87.0864 30.752 86.6064 30.6 86.1984 30.296C85.8064 29.976 85.5104 29.552 85.3104 29.024C85.1264 28.496 85.0304 27.888 85.0304 27.2C85.0304 26.512 85.1264 25.904 85.3104 25.376Z" fill="#1F2937"/>
  <path d="M94.5592 21.136H97.2152V32H94.5592V21.136ZM95.8872 19.6C95.4152 19.6 95.0152 19.448 94.6872 19.144C94.3752 18.84 94.2192 18.464 94.2192 18.016C94.2192 17.568 94.3752 17.192 94.6872 16.888C95.0152 16.584 95.4152 16.432 95.8872 16.432C96.3592 16.432 96.7512 16.584 97.0632 16.888C97.3912 17.192 97.5552 17.568 97.5552 18.016C97.5552 18.464 97.3912 18.84 97.0632 19.144C96.7512 19.448 96.3592 19.6 95.8872 19.6Z" fill="#1F2937"/>
  <path d="M110.148 26.24C110.148 26.592 110.124 26.912 110.076 27.2H101.324C101.388 28.048 101.692 28.712 102.236 29.192C102.78 29.672 103.452 29.912 104.252 29.912C105.428 29.912 106.252 29.44 106.724 28.496H109.876C109.564 29.488 108.98 30.312 108.124 30.968C107.268 31.608 106.196 31.928 104.908 31.928C103.892 31.928 102.98 31.688 102.172 31.208C101.38 30.712 100.756 30.024 100.3 29.144C99.86 28.264 99.64 27.24 99.64 26.072C99.64 24.888 99.86 23.856 100.3 22.976C100.74 22.096 101.364 21.416 102.172 20.936C102.98 20.456 103.9 20.216 104.932 20.216C105.916 20.216 106.804 20.448 107.596 20.912C108.388 21.376 109.004 22.04 109.444 22.904C109.9 23.752 110.148 24.728 110.148 25.832V26.24ZM108.416 25.544C108.4 24.776 108.132 24.16 107.612 23.696C107.092 23.232 106.452 23 105.692 23C104.972 23 104.372 23.232 103.892 23.696C103.412 24.144 103.116 24.76 103.004 25.544H108.416Z" fill="#1F2937"/>
  <path d="M116.654 32.288C115.734 32.288 114.918 32.104 114.206 31.736C113.494 31.352 112.934 30.816 112.526 30.128C112.134 29.44 111.934 28.624 111.926 27.68H114.654C114.694 28.272 114.886 28.76 115.23 29.144C115.59 29.512 116.094 29.696 116.742 29.696C117.39 29.696 117.886 29.536 118.23 29.216C118.574 28.88 118.746 28.456 118.746 27.944C118.746 27.512 118.622 27.168 118.374 26.912C118.126 26.656 117.814 26.456 117.438 26.312C117.062 26.168 116.558 26.008 115.926 25.832C115.094 25.592 114.414 25.352 113.886 25.112C113.358 24.872 112.902 24.504 112.518 24.008C112.15 23.496 111.966 22.816 111.966 21.968C111.966 21.184 112.15 20.504 112.518 19.928C112.886 19.352 113.406 18.912 114.078 18.608C114.75 18.304 115.526 18.152 116.406 18.152C117.742 18.152 118.798 18.496 119.574 19.184C120.366 19.872 120.798 20.832 120.87 22.064H118.062C118.038 21.552 117.862 21.144 117.534 20.84C117.222 20.52 116.766 20.36 116.166 20.36C115.646 20.36 115.23 20.504 114.918 20.792C114.622 21.08 114.474 21.48 114.474 21.992C114.474 22.376 114.59 22.696 114.822 22.952C115.07 23.192 115.374 23.384 115.734 23.528C116.11 23.672 116.614 23.832 117.246 24.008C118.078 24.248 118.758 24.488 119.286 24.728C119.814 24.968 120.27 25.344 120.654 25.856C121.038 26.352 121.23 27.024 121.23 27.872C121.23 28.576 121.054 29.224 120.702 29.816C120.35 30.408 119.838 30.88 119.166 31.232C118.494 31.584 117.662 31.76 116.67 31.76L116.654 32.288Z" fill="#1F2937"/>
</svg> 