<svg width="40" height="40" viewBox="0 0 40 40" fill="none" xmlns="http://www.w3.org/2000/svg">
  <rect width="40" height="40" rx="8" fill="#2563EB"/>
  <path d="M11 13C11 12.4477 11.4477 12 12 12H28C28.5523 12 29 12.4477 29 13V15C29 15.5523 28.5523 16 28 16H12C11.4477 16 11 15.5523 11 15V13Z" fill="white"/>
  <path d="M11 19C11 18.4477 11.4477 18 12 18H20C20.5523 18 21 18.4477 21 19V21C21 21.5523 20.5523 22 20 22H12C11.4477 22 11 21.5523 11 21V19Z" fill="white"/>
  <path d="M12 24C11.4477 24 11 24.4477 11 25V27C11 27.5523 11.4477 28 12 28H28C28.5523 28 29 27.5523 29 27V25C29 24.4477 28.5523 24 28 24H12Z" fill="white"/>
</svg> 