<svg width="160" height="48" viewBox="0 0 160 48" fill="none" xmlns="http://www.w3.org/2000/svg">
  <rect width="160" height="48" rx="4" fill="#F3F4F6"/>
  <path d="M33.1 32H30.42V17.248H38.5V19.808H33.1V23.384H37.78V25.944H33.1V32Z" fill="#1F2937"/>
  <path d="M46.5871 32.288C45.6671 32.288 44.8431 32.048 44.1151 31.568C43.3871 31.072 42.8191 30.4 42.4111 29.552C42.0191 28.688 41.8231 27.696 41.8231 26.576C41.8231 25.472 42.0271 24.496 42.4351 23.648C42.8591 22.784 43.4351 22.112 44.1631 21.632C44.9071 21.152 45.7631 20.912 46.7311 20.912C47.4751 20.912 48.0991 21.04 48.6031 21.296C49.1231 21.536 49.5391 21.832 49.8511 22.184C50.1791 22.536 50.4311 22.864 50.6071 23.168H50.7271V17.248H53.4071V32H50.7991V29.984H50.6071C50.4151 30.304 50.1471 30.64 49.8031 30.992C49.4751 31.344 49.0591 31.64 48.5551 31.88C48.0511 32.152 47.4111 32.288 46.6351 32.288H46.5871ZM47.3071 30.056C47.9071 30.056 48.4111 29.904 48.8191 29.6C49.2271 29.28 49.5391 28.84 49.7551 28.28C49.9711 27.72 50.0791 27.072 50.0791 26.336C50.0791 25.6 49.9711 24.96 49.7551 24.416C49.5551 23.872 49.2511 23.448 48.8431 23.144C48.4351 22.84 47.9311 22.688 47.3311 22.688C46.7151 22.688 46.2031 22.848 45.7951 23.168C45.3871 23.488 45.0831 23.92 44.8831 24.464C44.6831 25.008 44.5831 25.632 44.5831 26.336C44.5831 27.056 44.6831 27.696 44.8831 28.256C45.0991 28.816 45.4031 29.264 45.7951 29.6C46.2031 29.904 46.7071 30.056 47.3071 30.056Z" fill="#1F2937"/>
  <path d="M55.5977 21.136H58.2537V32H55.5977V21.136ZM56.9257 19.6C56.4537 19.6 56.0537 19.448 55.7257 19.144C55.4137 18.84 55.2577 18.464 55.2577 18.016C55.2577 17.568 55.4137 17.192 55.7257 16.888C56.0537 16.584 56.4537 16.432 56.9257 16.432C57.3977 16.432 57.7897 16.584 58.1017 16.888C58.4297 17.192 58.5937 17.568 58.5937 18.016C58.5937 18.464 58.4297 18.84 58.1017 19.144C57.7897 19.448 57.3977 19.6 56.9257 19.6Z" fill="#1F2937"/>
  <path d="M67.6641 32.264C66.6321 32.264 65.7121 32.024 64.9041 31.544C64.0961 31.048 63.4641 30.368 63.0081 29.504C62.5681 28.624 62.3481 27.624 62.3481 26.504C62.3481 25.384 62.5681 24.392 63.0081 23.528C63.4641 22.648 64.0961 21.968 64.9041 21.488C65.7121 20.992 66.6321 20.744 67.6641 20.744C68.6961 20.744 69.6161 20.992 70.4241 21.488C71.2321 21.968 71.8641 22.648 72.3201 23.528C72.7761 24.392 73.0041 25.384 73.0041 26.504C73.0041 27.624 72.7761 28.624 72.3201 29.504C71.8641 30.368 71.2321 31.048 70.4241 31.544C69.6161 32.024 68.6961 32.264 67.6641 32.264ZM67.6641 30.008C68.5361 30.008 69.2321 29.68 69.7521 29.024C70.2721 28.368 70.5321 27.528 70.5321 26.504C70.5321 25.48 70.2721 24.64 69.7521 23.984C69.2321 23.328 68.5361 23 67.6641 23C66.7921 23 66.0961 23.328 65.5761 23.984C65.0561 24.64 64.7961 25.48 64.7961 26.504C64.7961 27.528 65.0561 28.368 65.5761 29.024C66.0961 29.68 66.7921 30.008 67.6641 30.008Z" fill="#1F2937"/>
  <path d="M79.5889 32.288C78.6529 32.288 77.8289 32.032 77.1169 31.52C76.4049 30.992 75.8529 30.304 75.4609 29.456C75.0689 28.592 74.8729 27.656 74.8729 26.648C74.8729 25.624 75.0689 24.68 75.4609 23.816C75.8689 22.952 76.4289 22.272 77.1409 21.776C77.8689 21.28 78.7009 21.032 79.6369 21.032C80.3969 21.032 81.0369 21.2 81.5569 21.536C82.0929 21.856 82.5169 22.232 82.8289 22.664H82.9009V17.248H85.5569V32H83.0129V30.56H82.8289C82.5169 30.992 82.0929 31.368 81.5569 31.688C81.0209 32.088 80.3649 32.288 79.5889 32.288ZM80.2849 30.032C81.1409 30.032 81.8209 29.72 82.3249 29.096C82.8289 28.456 83.0809 27.624 83.0809 26.6C83.0809 25.576 82.8289 24.752 82.3249 24.128C81.8209 23.504 81.1409 23.192 80.2849 23.192C79.4289 23.192 78.7489 23.512 78.2449 24.152C77.7409 24.776 77.4889 25.592 77.4889 26.6C77.4889 27.608 77.7409 28.432 78.2449 29.072C78.7489 29.712 79.4289 30.032 80.2849 30.032Z" fill="#1F2937"/>
  <path d="M92.6097 32.288C91.6897 32.288 90.8817 32.024 90.1857 31.496C89.4897 30.968 88.9457 30.272 88.5537 29.408C88.1777 28.528 87.9897 27.56 87.9897 26.504C87.9897 25.448 88.1857 24.488 88.5777 23.624C88.9697 22.744 89.5137 22.048 90.2097 21.536C90.9057 21.008 91.7057 20.744 92.6097 20.744C93.3377 20.744 93.9457 20.888 94.4337 21.176C94.9377 21.448 95.3377 21.768 95.6337 22.136C95.9457 22.504 96.1777 22.832 96.3297 23.12H96.4257V21.04H99.0337V32H96.4257V29.888H96.3297C96.1617 30.176 95.9217 30.504 95.6097 30.872C95.2977 31.24 94.8977 31.56 94.4097 31.832C93.9217 32.136 93.3217 32.288 92.6097 32.288ZM93.3137 30.008C93.9137 30.008 94.4177 29.856 94.8257 29.552C95.2337 29.232 95.5457 28.792 95.7617 28.232C95.9777 27.672 96.0857 27.048 96.0857 26.36C96.0857 25.672 95.9777 25.064 95.7617 24.536C95.5457 23.992 95.2337 23.568 94.8257 23.264C94.4177 22.944 93.9137 22.784 93.3137 22.784C92.6977 22.784 92.1857 22.944 91.7777 23.264C91.3697 23.584 91.0577 24.016 90.8417 24.56C90.6417 25.104 90.5417 25.704 90.5417 26.36C90.5417 27.032 90.6417 27.648 90.8417 28.208C91.0417 28.752 91.3537 29.184 91.7777 29.504C92.2017 29.84 92.7057 30.008 93.3137 30.008Z" fill="#1F2937"/>
  <path d="M111.071 26.24C111.071 26.592 111.047 26.912 110.999 27.2H102.247C102.311 28.048 102.615 28.712 103.159 29.192C103.703 29.672 104.375 29.912 105.175 29.912C106.351 29.912 107.175 29.44 107.647 28.496H110.799C110.487 29.488 109.903 30.312 109.047 30.968C108.191 31.608 107.119 31.928 105.831 31.928C104.815 31.928 103.903 31.688 103.095 31.208C102.303 30.712 101.679 30.024 101.223 29.144C100.783 28.264 100.563 27.24 100.563 26.072C100.563 24.888 100.783 23.856 101.223 22.976C101.663 22.096 102.287 21.416 103.095 20.936C103.903 20.456 104.823 20.216 105.855 20.216C106.839 20.216 107.727 20.448 108.519 20.912C109.311 21.376 109.927 22.04 110.367 22.904C110.823 23.752 111.071 24.728 111.071 25.832V26.24ZM109.339 25.544C109.323 24.776 109.055 24.16 108.535 23.696C108.015 23.232 107.375 23 106.615 23C105.895 23 105.295 23.232 104.815 23.696C104.335 24.144 104.039 24.76 103.927 25.544H109.339Z" fill="#1F2937"/>
  <path d="M119.441 21.04V23.408H112.369V21.04H119.441ZM114.129 18.488H116.785V28.784C116.785 29.248 116.857 29.592 117.001 29.816C117.161 30.024 117.361 30.16 117.601 30.224C117.857 30.288 118.129 30.32 118.417 30.32C118.625 30.32 118.825 30.304 119.017 30.272C119.209 30.224 119.353 30.192 119.449 30.176L119.945 32.528C119.753 32.592 119.489 32.664 119.153 32.744C118.817 32.824 118.401 32.872 117.905 32.888C117.001 32.92 116.209 32.792 115.529 32.504C114.865 32.216 114.345 31.768 113.969 31.16C113.593 30.536 113.409 29.76 113.417 28.832V18.488H114.129Z" fill="#1F2937"/>
  <path d="M121.289 32V21.136H123.945V32H121.289ZM122.617 19.6C122.145 19.6 121.745 19.448 121.417 19.144C121.089 18.824 120.929 18.44 120.929 17.992C120.929 17.544 121.089 17.168 121.417 16.864C121.745 16.544 122.145 16.384 122.617 16.384C123.089 16.384 123.489 16.544 123.817 16.864C124.145 17.168 124.313 17.544 124.313 17.992C124.313 18.44 124.145 18.824 123.817 19.144C123.489 19.448 123.089 19.6 122.617 19.6Z" fill="#1F2937"/>
  <path d="M126.02 32V21.136H128.628V23.432H128.748C128.988 22.712 129.332 22.16 129.78 21.776C130.228 21.392 130.748 21.2 131.34 21.2C131.484 21.2 131.652 21.208 131.844 21.224C132.036 21.24 132.196 21.264 132.324 21.296V23.672C132.196 23.624 132.012 23.584 131.772 23.552C131.532 23.504 131.308 23.48 131.1 23.48C130.66 23.48 130.26 23.592 129.9 23.816C129.556 24.024 129.276 24.32 129.06 24.704C128.86 25.088 128.76 25.52 128.76 26V32H126.02Z" fill="#1F2937"/>
</svg> 